# xmcd CD database file
#
# Track frame offsets:
#	150
#	16054
#	31512
#	44943
#	58458
#	70747
#	82597
#	96502
#	109223
#	123135
#	136225
#	149266
#	165400
#	178344
#	195293
#	206293
#	221940
#	234347
#
# Disc length: 3303 seconds
#
# Revision: 1
# Processed by: cddbd v1.5.2PL0 Copyright (c) Steve Scherf et al.
# Submitted via: CDex 1.51
#
DISCID=f80ce512
DTITLE=Eartha Kitt - The Very Best Of - CD 1 
DYEAR=2007
DGENRE=Blues
TTITLE0=I Want To Be Evil
TTITLE1=Santa Baby
TTITLE2=Senor
TTITLE3=C'est Si Bon
TTITLE4=Under The Bridges of Paris
TTITLE5=Mountain High Valley Low
TTITLE6=Smoke Gets In Your Eyes
TTITLE7=Oh John Please Don't Kiss Me
TTITLE8=Let's Do It
TTITLE9=April in Portugal
TTITLE10=African Lullaby
TTITLE11=The blues
TTITLE12=Annie Doesn't Live Here Anymore
TTITLE13=Lilac Wine
TTITLE14=Salangadou
TTITLE15=Angelitos Negroes
TTITLE16=Two Lovers
TTITLE17=My Heart Belongs To Daddy
EXTD=YEAR: 2007
EXTT0=
EXTT1=
EXTT2=
EXTT3=
EXTT4=
EXTT5=
EXTT6=
EXTT7=
EXTT8=
EXTT9=
EXTT10=
EXTT11=
EXTT12=
EXTT13=
EXTT14=
EXTT15=
EXTT16=
EXTT17=
PLAYORDER=
